<?xml version="1.0" encoding="UTF-8"?>
<svg width="23px" height="19px" viewBox="0 0 23 19" version="1.1" xmlns="http://www.w3.org/2000/svg" xmlns:xlink="http://www.w3.org/1999/xlink">
    <!-- Generator: Sketch 62 (91390) - https://sketch.com -->
    <title>Shape</title>
    <desc>Created with Sketch.</desc>
    <g id="Page-1" stroke="none" stroke-width="1" fill="none" fill-rule="evenodd">
        <g id="Mobile" transform="translate(-209.000000, -670.000000)" fill="#FFFFFF" fill-rule="nonzero">
            <g id="Group-Copy" transform="translate(184.000000, 670.000000)">
                <path d="M33.1341463,0 L31.7317073,2.79411683 L26.9634146,2.79411683 C25.8756829,2.79411683 25,3.6664373 25,4.7499986 L25,17.0441182 C25,18.1276767 25.8756829,19 26.9634146,19 L46.0365854,19 C47.1243171,19 48,18.1276767 48,17.0441182 L48,4.7499986 C48,3.6664373 47.1243171,2.79411683 46.0365854,2.79411683 L41.2682927,2.79411683 L39.8658536,0 L33.1341463,0 L33.1341463,0 Z M36,5 C39.3008182,5 42,7.69922423 42,11 C42,14.3007649 39.3008182,17 36,17 C32.6992364,17 30,14.3007921 30,11 C30,7.69921059 32.6992364,5 36,5 L36,5 Z M36,7 C33.7773714,7 32,8.77734444 32,11 C32,13.2226584 33.7773714,15 36,15 C38.2226857,15 40,13.2226584 40,11 C40,8.77731587 38.2226857,7 36,7 Z" id="Shape"></path>
            </g>
        </g>
    </g>
</svg>